<?xml version="1.0" encoding="UTF-8"?>
<!DOCTYPE svg PUBLIC "-//W3C//DTD SVG 1.1//EN" "http://www.w3.org/Graphics/SVG/1.1/DTD/svg11.dtd">
<!-- Creator: CorelDRAW 2021 (64-Bit) -->
<svg xmlns="http://www.w3.org/2000/svg" xml:space="preserve" width="1.65241in" height="1.65241in" version="1.1" style="shape-rendering:geometricPrecision; text-rendering:geometricPrecision; image-rendering:optimizeQuality; fill-rule:evenodd; clip-rule:evenodd"
viewBox="0 0 1652.4 1652.4"
 xmlns:xlink="http://www.w3.org/1999/xlink"
 xmlns:xodm="http://www.corel.com/coreldraw/odm/2003">
 <defs>
  <style type="text/css">
   <![CDATA[
    .fil5 {fill:none}
    .fil1 {fill:#386189;fill-rule:nonzero}
    .fil4 {fill:url(#id0)}
    .fil3 {fill:url(#id1)}
    .fil0 {fill:url(#id2)}
    .fil2 {fill:url(#id3)}
   ]]>
  </style>
  <linearGradient id="id0" gradientUnits="userSpaceOnUse" x1="1292.92" y1="995.32" x2="1193.07" y2="1082.51">
   <stop offset="0" style="stop-opacity:1; stop-color:#2A3757"/>
   <stop offset="1" style="stop-opacity:1; stop-color:#4280AD"/>
  </linearGradient>
  <linearGradient id="id1" gradientUnits="userSpaceOnUse" xlink:href="#id0" x1="1483.52" y1="896.57" x2="1162.11" y2="1202.12">
  </linearGradient>
  <linearGradient id="id2" gradientUnits="userSpaceOnUse" xlink:href="#id0" x1="1370.21" y1="306.27" x2="861.26" y2="1343.79">
  </linearGradient>
  <linearGradient id="id3" gradientUnits="userSpaceOnUse" xlink:href="#id0" x1="1175.87" y1="990.33" x2="1069.72" y2="1014.87">
  </linearGradient>
 </defs>
 <g id="Layer_x0020_1">
  <metadata id="CorelCorpID_0Corel-Layer"/>
  <g id="_2569645335888">
   <g>
    <path class="fil0" d="M108.14 1139.26c-10.14,2.9 -42,-20.26 -49.25,-44.17 -25.1,-82.83 25.78,-132.58 104.49,-135.91 55.57,-2.34 110.2,22.31 157.53,53.35 123.2,80.78 324.69,271.94 454.24,280.61 190.74,12.74 83.77,-318.51 -59.18,-309.61 -3.04,0.19 -6.08,0.55 -9.11,1.09 -29.73,5.28 -24.94,-22.45 -7.57,-30.14 212.58,-94.15 258.87,-386.14 47.57,-415.66 -83.94,-11.75 -166.12,54.51 -208.05,122.37 -14.12,22.88 -29.41,48.15 -38.39,48.65 -11.11,0.63 -16.74,-18.51 -9.09,-42.35 116.52,-368.95 602.02,-191.55 460.48,126.25 -13.27,29.81 -31.76,60.93 -55.98,88.67l179.49 -106.66 -24.63 79.1c-74.14,32.3 -146.54,78.84 -220.69,111.14 69.54,11.63 108.46,82.94 132.43,145.33 19.4,-44.36 51.05,-112.8 68.45,-162.36 38.14,-108.67 71.98,-221.36 112.21,-333.98 30.6,-85.67 -116.93,-123.66 -122.65,-252.08 -1.66,-37.08 13.41,-147.07 30.94,-52.97 19.06,101.92 83.17,163.2 134.24,199.42 25.86,-62.57 53.17,-114.52 88.47,-154.72 50.1,-57.13 134.88,-68.29 109.24,10.45 -36.47,69.1 -72.93,130.83 -109.41,199.93 50.42,32.75 142.68,39.48 292.07,10.02 29.26,-11.78 53.42,21.13 11.41,44.42 -103.91,50.49 -225.19,60.11 -339.85,9.87 -37.13,70.62 -102.06,190.81 -120.62,226.12 -18.56,35.31 -61.91,93.88 -60.51,222.87 1.39,128.99 26.9,227.66 26.9,227.66 4.74,47.22 -18.85,58.06 -37.47,56.67 -38.9,-7.41 -59.8,-58.07 -84.54,-112.96 -44.24,138.58 -182.21,150.9 -300.51,108.03 -164.92,-59.76 -249.37,-258.52 -376.24,-320.16 -43.16,-20.97 -106.67,-29.4 -146.69,2.44 -42.59,33.91 -12.84,94.43 -29.71,99.25z"/>
    <path class="fil1" d="M1223.58 930.88c20.02,0 38.04,12.33 50.98,32.26 12.66,19.5 20.49,46.36 20.49,75.96 0,29.6 -7.83,56.47 -20.49,75.96 -12.94,19.93 -30.95,32.26 -50.98,32.26 -20.02,0 -38.04,-12.33 -50.98,-32.26 -12.66,-19.5 -20.49,-46.36 -20.49,-75.96 0,-29.6 7.83,-56.46 20.49,-75.96 12.94,-19.93 30.95,-32.26 50.98,-32.26zm45.25 35.98c-11.68,-17.99 -27.69,-29.13 -45.25,-29.13 -17.56,0 -33.57,11.13 -45.25,29.13 -11.97,18.43 -19.37,43.97 -19.37,72.24 0,28.28 7.4,53.82 19.37,72.24 11.68,18 27.69,29.13 45.25,29.13 17.56,0 33.57,-11.13 45.25,-29.13 11.97,-18.43 19.37,-43.96 19.37,-72.24 0,-28.28 -7.4,-53.81 -19.37,-72.24z"/>
    <path class="fil2" d="M1095.04 1159.26c-7.61,-7.87 -13.57,-12.6 -20.1,-19.24 -9.97,-117.67 7.76,-211.17 60.57,-291.25 6.92,-0.76 13.13,-1.31 19.91,-1.79 -46.02,92.98 -73.81,199.22 -60.38,312.28z"/>
    <path class="fil3" d="M1143.31 833.77l29.46 -60.57c128.07,4.12 210.11,63.17 244.03,165.18 34.78,104.56 21.17,210.19 -37.28,304.01 -67.85,108.98 -193.57,103.74 -289.91,32.75 -4.91,-36.51 -9.83,-73.01 -14.74,-109.52 41.6,53.04 87.21,80.99 137.09,82.2 162.45,3.89 190.84,-214.62 106.42,-333.79 -40.04,-56.54 -93.59,-85.43 -175.07,-80.28z"/>
    <ellipse class="fil4" cx="1223.58" cy="1039.1" rx="51.89" ry="86.65"/>
   </g>
   <rect class="fil5" x="-0" y="-0" width="1652.4" height="1652.4"/>
  </g>
 </g>
</svg>
